# WaveFront *.obj file (generated by Autodesk ATF)

mtllib 5cd9ab5c-d157-4629-a2ed-acffa99d9c81.mtl

g Body1

v -150.000000 5.000000 0.000000
v -150.000000 -10.000000 0.000000
v -150.000000 -10.000000 40.000000
v -150.000000 5.000000 40.000000
v 150.000000 5.000000 0.000000
v 112.500000 9.219749 0.000000
v 75.000000 12.360928 0.000000
v 37.500000 14.325998 0.000000
v 0.000000 15.000000 0.000000
v -37.500000 14.325998 0.000000
v -75.000000 12.360928 0.000000
v -112.500000 9.219749 0.000000
v -112.500000 9.219749 40.000000
v -75.000000 12.360928 40.000000
v -37.500000 14.325998 40.000000
v 0.000000 15.000000 40.000000
v 37.500000 14.325998 40.000000
v 75.000000 12.360928 40.000000
v 112.500000 9.219749 40.000000
v 150.000000 5.000000 40.000000
v 150.000000 -10.000000 0.000000
v 150.000000 -10.000000 40.000000
v -112.500000 -5.780251 0.000000
v -75.000000 -2.639072 0.000000
v -37.500000 -0.674002 0.000000
v 0.000000 -0.000000 0.000000
v 37.500000 -0.674002 0.000000
v 75.000000 -2.639072 0.000000
v 112.500000 -5.780251 0.000000
v 112.500000 -5.780251 40.000000
v 75.000000 -2.639072 40.000000
v 37.500000 -0.674002 40.000000
v 0.000000 -0.000000 40.000000
v -37.500000 -0.674002 40.000000
v -75.000000 -2.639072 40.000000
v -112.500000 -5.780251 40.000000
vt 0.000000 0.000000 0.000000
vt 1.500000 0.000000 0.000000
vt 0.000000 4.000000 0.000000
vt 1.500000 4.000000 0.000000
vt -30.000000 0.000000 0.000000
vt -26.250000 0.000000 0.000000
vt -30.000000 4.000000 0.000000
vt -26.250000 4.000000 0.000000
vt -22.500000 0.000000 0.000000
vt -22.500000 4.000000 0.000000
vt -18.750000 0.000000 0.000000
vt -18.750000 4.000000 0.000000
vt -15.000000 0.000000 0.000000
vt -15.000000 4.000000 0.000000
vt -11.250000 0.000000 0.000000
vt -11.250000 4.000000 0.000000
vt -7.500000 0.000000 0.000000
vt -7.500000 4.000000 0.000000
vt -3.750000 0.000000 0.000000
vt -3.750000 4.000000 0.000000
vt 0.000000 0.000000 0.000000
vt 0.000000 4.000000 0.000000
vt 0.000000 0.000000 0.000000
vt 1.500000 0.000000 0.000000
vt 0.000000 4.000000 0.000000
vt 1.500000 4.000000 0.000000
vt 0.000000 0.000000 0.000000
vt 3.750000 0.000000 0.000000
vt 0.000000 4.000000 0.000000
vt 3.750000 4.000000 0.000000
vt 7.500000 0.000000 0.000000
vt 7.500000 4.000000 0.000000
vt 11.250000 0.000000 0.000000
vt 11.250000 4.000000 0.000000
vt 15.000000 0.000000 0.000000
vt 15.000000 4.000000 0.000000
vt 18.750000 0.000000 0.000000
vt 18.750000 4.000000 0.000000
vt 22.500000 0.000000 0.000000
vt 22.500000 4.000000 0.000000
vt 26.250000 0.000000 0.000000
vt 26.250000 4.000000 0.000000
vt 30.000000 0.000000 0.000000
vt 30.000000 4.000000 0.000000
vt -15.000000 -1.260997 0.000000
vt -11.250000 -0.839022 0.000000
vt -15.000000 0.239003 0.000000
vt -7.500000 -0.524905 0.000000
vt -3.750000 -0.328398 0.000000
vt 0.000000 -0.260997 0.000000
vt -7.500000 0.975095 0.000000
vt -11.250000 0.660978 0.000000
vt 3.750000 -0.328398 0.000000
vt 7.500000 0.975095 0.000000
vt 3.750000 1.171602 0.000000
vt 0.000000 1.239003 0.000000
vt 7.500000 -0.524905 0.000000
vt 15.000000 0.239003 0.000000
vt 11.250000 0.660978 0.000000
vt 11.250000 -0.839022 0.000000
vt 15.000000 -1.260997 0.000000
vt -3.750000 1.171602 0.000000
vt -15.000000 -1.260997 0.000000
vt -11.250000 -0.839022 0.000000
vt -15.000000 0.239003 0.000000
vt -7.500000 -0.524905 0.000000
vt -3.750000 -0.328398 0.000000
vt -0.000000 -0.260997 0.000000
vt -7.500000 0.975095 0.000000
vt -11.250000 0.660978 0.000000
vt 3.750000 -0.328398 0.000000
vt 7.500000 0.975095 0.000000
vt 3.750000 1.171602 0.000000
vt -0.000000 1.239003 0.000000
vt 7.500000 -0.524905 0.000000
vt 15.000000 0.239003 0.000000
vt 11.250000 0.660978 0.000000
vt 11.250000 -0.839022 0.000000
vt 15.000000 -1.260997 0.000000
vt -3.750000 1.171602 0.000000
vn -0.100000 0.000000 0.000000
vn -0.100000 0.000000 0.000000
vn -0.100000 0.000000 0.000000
vn -0.100000 0.000000 0.000000
vn 0.012541 0.099210 0.000000
vn 0.009800 0.099519 0.000000
vn 0.012541 0.099210 0.000000
vn 0.009800 0.099519 0.000000
vn 0.006845 0.099765 0.000000
vn 0.006845 0.099765 0.000000
vn 0.003563 0.099937 0.000000
vn 0.003563 0.099937 0.000000
vn -0.000000 0.100000 0.000000
vn -0.000000 0.100000 0.000000
vn -0.003563 0.099937 0.000000
vn -0.003563 0.099937 0.000000
vn -0.006845 0.099765 0.000000
vn -0.006845 0.099765 0.000000
vn -0.009800 0.099519 0.000000
vn -0.009800 0.099519 0.000000
vn -0.012541 0.099210 0.000000
vn -0.012541 0.099210 0.000000
vn 0.100000 0.000000 0.000000
vn 0.100000 0.000000 0.000000
vn 0.100000 0.000000 0.000000
vn 0.100000 0.000000 0.000000
vn 0.012541 -0.099210 0.000000
vn 0.009800 -0.099519 0.000000
vn 0.012541 -0.099210 0.000000
vn 0.009800 -0.099519 0.000000
vn 0.006845 -0.099765 0.000000
vn 0.006845 -0.099765 0.000000
vn 0.003563 -0.099937 0.000000
vn 0.003563 -0.099937 0.000000
vn -0.000000 -0.100000 0.000000
vn -0.000000 -0.100000 0.000000
vn -0.003563 -0.099937 0.000000
vn -0.003563 -0.099937 0.000000
vn -0.006845 -0.099765 0.000000
vn -0.006845 -0.099765 0.000000
vn -0.009800 -0.099519 0.000000
vn -0.009800 -0.099519 0.000000
vn -0.012541 -0.099210 0.000000
vn -0.012541 -0.099210 0.000000
vn 0.000000 0.000000 0.100000
vn 0.000000 0.000000 0.100000
vn 0.000000 0.000000 0.100000
vn 0.000000 0.000000 0.100000
vn 0.000000 0.000000 0.100000
vn 0.000000 0.000000 0.100000
vn 0.000000 0.000000 0.100000
vn 0.000000 0.000000 0.100000
vn 0.000000 0.000000 0.100000
vn 0.000000 0.000000 0.100000
vn 0.000000 0.000000 0.100000
vn 0.000000 0.000000 0.100000
vn 0.000000 0.000000 0.100000
vn 0.000000 0.000000 0.100000
vn 0.000000 0.000000 0.100000
vn 0.000000 0.000000 0.100000
vn 0.000000 0.000000 0.100000
vn 0.000000 0.000000 0.100000
vn 0.000000 0.000000 -0.100000
vn 0.000000 0.000000 -0.100000
vn 0.000000 0.000000 -0.100000
vn 0.000000 0.000000 -0.100000
vn 0.000000 0.000000 -0.100000
vn 0.000000 0.000000 -0.100000
vn 0.000000 0.000000 -0.100000
vn 0.000000 0.000000 -0.100000
vn 0.000000 0.000000 -0.100000
vn 0.000000 0.000000 -0.100000
vn 0.000000 0.000000 -0.100000
vn 0.000000 0.000000 -0.100000
vn 0.000000 0.000000 -0.100000
vn 0.000000 0.000000 -0.100000
vn 0.000000 0.000000 -0.100000
vn 0.000000 0.000000 -0.100000
vn 0.000000 0.000000 -0.100000
vn 0.000000 0.000000 -0.100000
usemtl Steel_-_Satin
f 1/1/1 2/2/2 4/3/3
f 4/3/3 2/2/2 3/4/4
f 5/5/5 6/6/6 20/7/7
f 20/7/7 6/6/6 19/8/8
f 19/8/8 6/6/6 7/9/9
f 19/8/8 7/9/9 18/10/10
f 18/10/10 7/9/9 8/11/11
f 18/10/10 8/11/11 17/12/12
f 17/12/12 8/11/11 9/13/13
f 17/12/12 9/13/13 16/14/14
f 16/14/14 9/13/13 10/15/15
f 16/14/14 10/15/15 15/16/16
f 15/16/16 10/15/15 11/17/17
f 15/16/16 11/17/17 14/18/18
f 14/18/18 11/17/17 12/19/19
f 14/18/18 12/19/19 13/20/20
f 13/20/20 12/19/19 1/21/21
f 13/20/20 1/21/21 4/22/22
f 21/23/23 5/24/24 22/25/25
f 22/25/25 5/24/24 20/26/26
f 2/27/27 23/28/28 3/29/29
f 3/29/29 23/28/28 36/30/30
f 36/30/30 23/28/28 24/31/31
f 36/30/30 24/31/31 35/32/32
f 35/32/32 24/31/31 25/33/33
f 35/32/32 25/33/33 34/34/34
f 34/34/34 25/33/33 26/35/35
f 34/34/34 26/35/35 33/36/36
f 33/36/36 26/35/35 27/37/37
f 33/36/36 27/37/37 32/38/38
f 32/38/38 27/37/37 28/39/39
f 32/38/38 28/39/39 31/40/40
f 31/40/40 28/39/39 29/41/41
f 31/40/40 29/41/41 30/42/42
f 30/42/42 29/41/41 21/43/43
f 30/42/42 21/43/43 22/44/44
f 3/45/45 36/46/46 4/47/47
f 4/47/47 36/46/46 35/48/48
f 4/47/47 35/48/48 34/49/49
f 33/50/50 14/51/51 34/49/49
f 34/49/49 14/51/51 13/52/52
f 34/49/49 13/52/52 4/47/47
f 32/53/53 18/54/54 33/50/50
f 33/50/50 18/54/54 17/55/55
f 33/50/50 17/55/55 16/56/56
f 31/57/57 20/58/58 32/53/53
f 32/53/53 20/58/58 19/59/59
f 32/53/53 19/59/59 18/54/54
f 31/57/57 30/60/60 20/58/58
f 20/58/58 30/60/60 22/61/61
f 16/56/56 15/62/62 33/50/50
f 33/50/50 15/62/62 14/51/51
f 21/63/63 29/64/64 5/65/65
f 5/65/65 29/64/64 28/66/66
f 5/65/65 28/66/66 27/67/67
f 26/68/68 7/69/69 27/67/67
f 27/67/67 7/69/69 6/70/70
f 27/67/67 6/70/70 5/65/65
f 25/71/71 11/72/72 26/68/68
f 26/68/68 11/72/72 10/73/73
f 26/68/68 10/73/73 9/74/74
f 24/75/75 1/76/76 25/71/71
f 25/71/71 1/76/76 12/77/77
f 25/71/71 12/77/77 11/72/72
f 24/75/75 23/78/78 1/76/76
f 1/76/76 23/78/78 2/79/79
f 9/74/74 8/80/80 26/68/68
f 26/68/68 8/80/80 7/69/69
# 36 vertices
# 80 texture params
# 80 normals
# 68 facets

# 1 groups
